<svg xmlns="http://www.w3.org/2000/svg" viewBox="0 0 311.76 305.66"><title>Asset 1</title><g id="Layer_2" data-name="Layer 2"><g id="Layer_1-2" data-name="Layer 1"><path d="M170.54,305.66c-19.1.22-35.44-14.62-37.4-34.52-.4-4.12-1.74-5.91-5.58-7.28-45.66-16.36-82-44.56-106.87-86.44-18.1-30.52-25.92-63.33-17-98.68a94.35,94.35,0,0,1,23-41.48c1.86-2,2.66-3.65,2.07-6.51-1.27-6.22.62-11.58,5.95-15.33s10.69-3.61,16.54-1c1.84.82,4.82.42,6.76-.51C78.71,4,100.65-.27,123.37,0A183.19,183.19,0,0,1,205,20.35C216.39,26.14,227.11,33.26,238,40c2.2,1.37,3.64,1.48,6.18.86A13.72,13.72,0,0,1,253.37,42c3.12,1.78,3.82,5.41,3,9.31a6.79,6.79,0,0,0,1.76,5.32C271.16,69.42,283,83.16,291.83,99.19c16.32,29.71,25.15,61,16.62,95-8.31,33.07-29.16,56.11-60.21,69.38-11.17,4.78-23.45,7.05-35.33,10.07-3.37.86-5.37,1.77-6.42,5.51C202.08,294.77,187.32,305.47,170.54,305.66Zm37.38-44.14a15.63,15.63,0,0,0,3.16,0c7.14-1.55,14.39-2.77,21.38-4.85,44.35-13.25,72.62-49.37,71.84-93.92-.75-42.27-20.56-76-50.63-104.45a4.91,4.91,0,0,0-3.45-.92c-7.2.72-11-2.41-11.6-9.53a6.07,6.07,0,0,0-1.94-4C195.93,14.61,151.35-.82,100.64,6.9c-15,2.29-29.39,7-42.39,15.12,2.82,16.19-9.85,24.39-22.73,19C22.46,55,15.09,71.78,12.78,90.54c-3.26,26.5,3,51.29,15.69,74.5,19.49,35.74,48.6,61.31,84.87,79.06,7.12,3.49,14.64,6.17,22.08,9.27,9.08-16.29,22.06-25,40.38-22.48C193.37,233.32,203.73,244.41,207.92,261.52Z"/><path d="M144.84,32.09c47.93.77,95.93,32.57,113.76,76.24,7,17.06,7.94,34.52,1.59,52.14a9.53,9.53,0,0,0,.25,5.6c3.28,10.48-3.45,19.2-14.46,18.74-2-.08-4.45.05-6,1.11-19.07,13.06-40.31,16.36-62.53,12.87-40.18-6.33-71.76-26.48-92.91-61.55C73.42,118.8,68.52,98.7,75,77.42c7.3-24,25.08-36.88,48.66-42.45C130.55,33.34,137.77,33,144.84,32.09Zm46.24,158c14.48.25,28.07-2.91,40.55-10.43,2.42-1.45,3.35-2.93,2.71-6a13.11,13.11,0,0,1,13-15.83c4.15,0,5.5-1.71,6.58-5,6.13-18.88,3.9-37.22-5.94-53.91-24.83-42.16-61.87-63-111.13-60-16.43,1-31.06,7.8-41.87,20.71-14.57,17.37-15.8,37.2-8.68,57.84C100.37,158.28,146.29,190,191.08,190Z"/><path d="M162.32,65.59c24.22.25,48.7,16.84,56.58,38.34,8,22-5.15,41.68-28.51,42.77-14.17.65-26.81-3.61-38.63-11.16a11.06,11.06,0,0,0-7.14-1.5c-7.46,1.26-14.05-1.07-18.34-7.2-3.82-5.46-3.7-13.31.08-19.31.89-1.41,1.88-3.33,1.62-4.81C123.88,79.24,140.84,65.25,162.32,65.59ZM136.9,100c18.25,1,24.06,10,17.88,28.22,10,7.16,21,11.3,33.47,10.44,21.3-1.47,31.78-20.08,21.92-39-6.09-11.69-15.62-19.75-27.85-24.5-10.73-4.16-21.66-5.29-32.47-.32C139.58,79.49,134.24,90.17,136.9,100Z"/></g></g></svg>